<?xml version="1.0" encoding="utf-8"?>
<!-- Generator: Adobe Illustrator 21.1.0, SVG Export Plug-In . SVG Version: 6.00 Build 0)  -->
<svg version="1.1" id="Слой_1" xmlns="http://www.w3.org/2000/svg" xmlns:xlink="http://www.w3.org/1999/xlink" x="0px" y="0px"
	 viewBox="0 0 212.9 255.1" style="enable-background:new 0 0 212.9 255.1;" xml:space="preserve">
<style type="text/css">
	.st0{fill:#ffffff;
	scale}
</style>

<g>
	<path class="st0" d="M2.8,0h207.4h2.5h0.3v0.3v2.5v163.1v0.7l0,0v0l0,0.2v0l0,0.5h0v1v0.3h0c-0.3,9.8-3.4,20-8.6,29.7
		c-5.3,10-13,19.5-22.4,27.8c-9.9,8.7-21.7,16.1-34.8,21.2c-12.1,4.8-25.4,7.6-39.2,7.8l-1.5,0l0,0c-13.8,0-26.9-2.5-39-6.8
		c-12.9-4.7-24.6-11.5-34.4-19.7c-9.9-8.3-18.1-18-23.7-28.4c-5.5-10.1-8.8-20.9-9.2-31.7H0v-0.3v-2.2v-0.2V2.8V0.3V0h0.3H2.8L2.8,0
		z M76.8,224.7h3V216l0.3-1.5l-1.1,1.3l-1.9,1.3l-1.2-1.6l5-4h1.6v13.2h3v2.4h-8.7V224.7L76.8,224.7z M92.7,223.3
		c0-0.5,0.1-1,0.2-1.4c0.1-0.4,0.3-0.8,0.6-1.1c0.2-0.3,0.5-0.6,0.9-0.9c0.3-0.3,0.7-0.5,1.1-0.7c-0.7-0.5-1.3-1-1.7-1.6
		c-0.4-0.6-0.6-1.3-0.6-2.2c0-0.6,0.1-1.1,0.3-1.6c0.2-0.5,0.5-0.9,0.9-1.3c0.4-0.4,0.9-0.6,1.5-0.9c0.6-0.2,1.2-0.3,1.9-0.3
		c0.7,0,1.3,0.1,1.8,0.3c0.5,0.2,1,0.4,1.4,0.7c0.4,0.3,0.7,0.7,0.9,1.2c0.2,0.5,0.3,1,0.3,1.5c0,0.9-0.2,1.6-0.6,2.2
		c-0.4,0.6-1,1.1-1.7,1.6c0.9,0.5,1.5,1.1,2,1.7c0.4,0.6,0.7,1.4,0.7,2.4c0,0.7-0.1,1.3-0.4,1.8c-0.2,0.5-0.6,1-1,1.4
		c-0.4,0.4-1,0.7-1.6,0.9c-0.6,0.2-1.3,0.3-2,0.3c-0.7,0-1.4-0.1-2-0.3c-0.6-0.2-1.1-0.5-1.5-0.8c-0.4-0.4-0.7-0.8-1-1.3
		C92.8,224.5,92.7,223.9,92.7,223.3L92.7,223.3z M99.7,223c0-0.3-0.1-0.6-0.2-0.9c-0.2-0.3-0.4-0.5-0.6-0.8
		c-0.3-0.2-0.5-0.4-0.9-0.6c-0.3-0.2-0.6-0.4-1-0.5c-0.7,0.4-1.2,0.8-1.4,1.3c-0.3,0.5-0.4,0.9-0.4,1.4c0,0.6,0.2,1.1,0.6,1.5
		c0.4,0.4,1,0.6,1.7,0.6c0.7,0,1.2-0.2,1.6-0.5C99.5,224.2,99.7,223.7,99.7,223L99.7,223z M95.8,215.5c0,0.4,0.1,0.7,0.2,0.9
		c0.1,0.3,0.3,0.5,0.5,0.7c0.2,0.2,0.5,0.4,0.8,0.5c0.3,0.2,0.6,0.3,0.9,0.5c0.9-0.7,1.3-1.6,1.3-2.5c0-0.6-0.2-1.1-0.5-1.4
		c-0.4-0.3-0.8-0.5-1.3-0.5c-0.6,0-1.1,0.2-1.4,0.5C95.9,214.7,95.8,215.1,95.8,215.5L95.8,215.5z M109,219.4c0-2.7,0.5-4.7,1.4-6
		c0.9-1.3,2.2-2,4-2c1.8,0,3.2,0.6,4,1.9c0.9,1.3,1.3,3.3,1.3,6c0,2.7-0.5,4.7-1.4,6c-0.9,1.3-2.3,2-4,2c-1.8,0-3.2-0.7-4-2.1
		C109.4,223.9,109,222,109,219.4L109,219.4z M111.8,219.4c0,1.8,0.2,3.2,0.6,4.1c0.4,1,1,1.5,1.9,1.5c0.9,0,1.5-0.4,1.9-1.3
		c0.4-0.9,0.6-2.3,0.6-4.2c0-1.8-0.2-3.1-0.6-4.1c-0.4-1-1-1.4-1.9-1.4c-0.9,0-1.5,0.5-1.9,1.4C112,216.1,111.8,217.5,111.8,219.4
		L111.8,219.4z M137,222.8h-2.4v4.3h-2.6v-4.3h-6.6v-1.6l6.9-9.5h2.3v8.9h2.4V222.8L137,222.8z M131.9,217.2l0.2-1.8H132l-0.7,1.6
		l-2.3,3l-1.1,0.8l1.4-0.2h2.6V217.2L131.9,217.2z M74.4,62.8c-6.5-3.6-9.2,1.7-15.6,3c-7,1.5-8.9-4-11.9-8.9
		c4.9,1,5.2,3.4,11.7-1.1c4.7-3.2,10.7-1.1,14.3,2.9L69,48.2c11.6-0.1,24.8-1.6,36.3,0l1.5,0.2c12.3,2.4,21.6,12.9,21.6,26.3
		c0,9.7-5.6,20.6-13.7,26.3v1.2c10.9-2.5,23.4-11.6,24.5-16.8c-1.6-0.6-5.4-2.8-5.4-3.1c-4.3-3.1-6.1-9.2-5.1-13.8
		c1-4.6,3.2-6.9,6.2-8.7c2.1-1.1,4-1.7,6.3-2l57.4-8.1c0.3,1.9,0.5,3.9,0.6,5.9c1.7,35.1-25.5,65-60.6,66.6
		c-12,0.6-27.5-6.1-33-17.4c-0.3,0-0.6,0.1-0.9,0.1c-2.1,0.2-4,0.6-5.8,1.1c-1.8,7.6,13.8,13.6,31.9,16.5l-2.9,4.2
		c3.4-1.1,7.1-1.7,10.9-1.7c19.9,0,36.1,16.2,36.1,36.1c0,19.9-16.2,36.1-36.1,36.1c-19.9,0-36.1-16.2-36.1-36.1c0-2,0.2-4.1,0.5-6
		l1.2,0.2l21.8,1.5c-1.1,1.8-1.7,3.9-1.7,6.1c0,6.5,5.2,11.7,11.7,11.7s11.7-5.2,11.7-11.7c0-6.4-5.1-11.5-11.4-11.7l0-0.1l-1.4,0.2
		c-0.1,0-0.3,0-0.4,0l-18.8,2.2c-8.2,1.3-15.3,1.9-21.4,1.7l-26,35.5l-3.3-8.6c-18.4-1.5-12,7-7.9,10.4c0.4,0.3,0.4,1.8,0,2.1
		c-6.8-0.5-12.7-5.9-12.7-13c0-7.1,5.9-13.1,13.1-13.1c4.8,0,9,2.6,11.3,6.5l11.8-37.3h-1.9l-7.1,10.3c-4.2-4.4-7.5-9.7-9.5-15.6
		l-20-24.7c-0.8,1.9-2.1,3.6-3.8,4.9l-4-10.6c-8.8-0.4-14.3,1.7-9.7,8.4l1.9,0l-0.2-3.3H32l-0.9,11.6l0,0.1h0l0,0.2h-3.8l0-0.8
		l-0.3-3.7c-5.1-1.8-9.8-5.8-9.8-12.1c0-4.9,3.3-9.8,8-12l-2.6-34l-6.2-7.9h10.5c-0.4-4.4,1-9.1,3.5-12.9c-2.3,0.4-4.5,1.6-6.5,5.1
		c-1.4-7.5,4.9-17.1,13.4-15.6c8.6,1.4,7.8-1,12.3-4.4c-0.3,2.8-0.4,5.6-1,8c8.8,1,8.4-2.3,14.1-6.5c-1,8.8-0.1,17.6-10.8,20.1
		c-9.8,2.3-17.1-3.4-23.8,6.2h1.2H42l-6.2,7.8l-2.5,33.2c2.1,0.5,4,1.5,5.6,2.9l15.9,9.6l3.5,12.9H60c1.7-21.7,19.5-38.8,41.5-39.4
		l-0.9-2.1l-22.1,0.1L74.4,62.8L74.4,62.8z M73.4,59.3c0.7,0.9,1.3,1.9,1.7,2.9c9.4,1.7,26.8,12.5,21-2.9H73.4L73.4,59.3z M88.7,28
		h5.7v1.4h1.8v4.4c-1.2,0.5-2,1.6-2,2.9c0,1.4,0.9,2.6,2.2,3l0,0l0.1,0l0,0l0,0h0l0,0h0l0,0l0.1,0h0l0,0l0,0l0,0l0,0l0,0l0,0l0,0
		l0,0l0,0l0,0l0,0l0,0l0,0l0.1,0l0,0l0,0h0l0,0h0l0,0l0,0l0,0l0,0l0,0l0,0l0,0l0,0l0,0l0,0l0,0l0,0h0l0,0h0l0.1,0h0l0,0l0,0h0h0
		c1.7,0,3.2-1.4,3.2-3.2l0-0.1l0,0l0-0.1l0-0.1c0,0,0-0.1,0-0.1l0,0l0,0l0,0v0c0-0.1,0-0.1,0-0.2l0,0l0-0.1v0l0-0.1l0-0.1l0,0l0-0.1
		l0,0l0,0c-0.2-0.5-0.4-0.9-0.8-1.3l0,0l0,0l0,0v0l0,0l0,0l0,0l0,0l0,0l0,0l0,0l-0.1,0l0,0l0,0c0,0-0.1-0.1-0.1-0.1l0,0l0,0l0,0l0,0
		l0,0l0,0l0,0c0,0-0.1,0-0.1-0.1v0c0,0-0.1,0-0.1-0.1l0,0l-0.1,0l0,0l0,0V33c0-2.6,2.3-6,4.9-6.1l4.8-0.1l-6.9,18.1l-19.8,0.1
		l-6.9-18.1l4.6,0.1c2.6,0,4.9,3.5,4.9,6.1v0.8c-0.6,0.3-1.2,0.8-1.5,1.4l0,0l0,0l0,0l0,0.1l0,0l0,0l0,0.1l0,0.1l0,0l0,0l0,0.1l0,0
		l0,0l0,0.1l0,0c0,0.1-0.1,0.2-0.1,0.4l0,0c0,0.1,0,0.2,0,0.3l0,0c0,0,0,0.1,0,0.1l0,0v0l0,0.1l0,0l0,0.1c0,1.7,1.4,3.2,3.2,3.2h0h0
		l0,0l0,0h0l0.1,0h0l0,0l0,0l0,0l0,0l0,0l0,0l0,0l0,0l0,0l0,0l0,0l0,0l0,0l0,0l0,0l0,0l0,0l0,0l0,0l0,0l0,0l0,0l0,0l0,0l0,0l0,0l0,0
		l0,0l0,0l0.1,0l0,0c1.3-0.4,2.3-1.6,2.3-3c0-1.3-0.8-2.5-2-2.9v-4.4h1.8V28L88.7,28z M168.1,137.1c15.2-6.2,29.4-16.5,32.6-42.3
		c-3,12.7-9.6,19.7-17.9,23.6c-8.9,4.2-19.6,4.8-30,4.9C159.9,126.4,164.6,130.7,168.1,137.1L168.1,137.1z M207.4,5.5H5.5v157.5h0
		l0,0.3l0,1.8v0.7h0v0.3c0,10.4,2.9,20.8,8.2,30.7c5.4,10.1,13.2,19.6,22.9,27.6c9.4,7.8,20.5,14.3,32.8,18.7
		c11.5,4.1,24,6.5,37.1,6.5v0l1.4,0c13.2-0.2,25.8-2.9,37.3-7.4c12.5-4.9,23.7-11.9,33.1-20.2c9.1-8,16.4-17.2,21.4-26.7
		c4.9-9.4,7.7-19.1,7.7-28.5c0-0.4,0-0.5,0-0.5h0v-0.1h0v0h0v-0.3v-0.4h0l0-2.1l0-0.3h0V5.5L207.4,5.5z"/>
</g>
</svg>
